<?xml version="1.0" standalone="no"?><!DOCTYPE svg PUBLIC "-//W3C//DTD SVG 1.1//EN" "http://www.w3.org/Graphics/SVG/1.1/DTD/svg11.dtd"><svg t="1487735482641" class="icon" style="" viewBox="0 0 1024 1024" version="1.1" xmlns="http://www.w3.org/2000/svg" p-id="3973" xmlns:xlink="http://www.w3.org/1999/xlink" width="200" height="200"><defs><style type="text/css"></style></defs><path d="M751.204987 183.675276l0-16.217357c0-57.091276-50.907437-103.538121-113.481587-103.538121L386.260228 63.919798c-62.574151 0-113.481587 46.446845-113.481587 103.538121l0 16.217357L127.830387 183.675276l0 44.897559 768.339226 0 0-44.897559L751.204987 183.675276zM316.124867 167.45792c0-33.189913 31.462572-60.190871 70.13536-60.190871l251.463172 0c38.672788 0 70.13536 27.001981 70.13536 60.190871l0 16.217357L316.124867 183.675276 316.124867 167.45792z" p-id="3974"></path><path d="M779.327488 759.594051c0 33.172517-31.56388 60.161195-70.359464 60.161195L317.39786 819.755246c-38.796608 0-70.359464-26.988678-70.359464-60.161195L247.038396 283.263435 203.631794 283.263435l0 476.330616c0 57.107649 51.03535 103.567797 113.766067 103.567797l391.570163 0c62.730717 0 113.766067-46.460148 113.766067-103.567797L822.73409 283.263435l-43.406602 0L779.327488 759.594051z" p-id="3975"></path><path d="M602.984201 283.263435l44.901653 0 0 422.714488-44.901653 0 0-422.714488Z" p-id="3976"></path><path d="M490.730581 283.263435l44.901653 0 0 422.714488-44.901653 0 0-422.714488Z" p-id="3977"></path><path d="M378.480031 283.263435l44.897559 0 0 422.714488-44.897559 0 0-422.714488Z" p-id="3978"></path></svg>