<?xml version="1.0" standalone="no"?><!DOCTYPE svg PUBLIC "-//W3C//DTD SVG 1.1//EN" "http://www.w3.org/Graphics/SVG/1.1/DTD/svg11.dtd"><svg t="1487763455413" class="icon" style="" viewBox="0 0 1024 1024" version="1.1" xmlns="http://www.w3.org/2000/svg" p-id="6584" xmlns:xlink="http://www.w3.org/1999/xlink" width="200" height="200"><defs><style type="text/css"></style></defs><path d="M840.268442 529.277502l0 259.159458c0 28.579919-23.251563 51.831482-51.831482 51.831482L235.56304 840.268442c-28.579919 0-51.831482-23.252587-51.831482-51.831482L183.731558 235.56304c0-28.580942 23.252587-51.831482 51.831482-51.831482l276.43696 0 0-34.555004c-141.105738 0-276.43696 0-276.43696 0-47.709605 0-86.386486 38.674834-86.386486 86.386486l0 552.873919c0 47.709605 38.676881 86.386486 86.386486 86.386486l552.873919 0c47.710628 0 86.386486-38.676881 86.386486-86.386486 0 0 0-123.322723 0-259.159458l-0.343831-0.360204L840.268442 529.277502z" p-id="6585"></path><path d="M846.646626 237.488512l-354.401433 354.401433-60.607769-60.607769 354.401433-354.401433 60.607769 60.607769Z" p-id="6586"></path><path d="M379.594411 643.927705 479.007585 605.123934 418.399205 544.515554Z" p-id="6587"></path><path d="M862.172311 161.827689c-16.868179-16.868179-44.216038-16.868179-61.084217 0l61.084217 61.084217C879.040491 206.043726 879.040491 178.695868 862.172311 161.827689z" p-id="6588"></path></svg>