<?xml version="1.0" standalone="no"?><!DOCTYPE svg PUBLIC "-//W3C//DTD SVG 1.1//EN" "http://www.w3.org/Graphics/SVG/1.1/DTD/svg11.dtd"><svg t="1487742597551" class="icon" style="" viewBox="0 0 1024 1024" version="1.1" xmlns="http://www.w3.org/2000/svg" p-id="5281" xmlns:xlink="http://www.w3.org/1999/xlink" width="200" height="200"><defs><style type="text/css"></style></defs><path d="M773.696 134.812 264.54 134.812c-69.76 0-126.521 56.761-126.521 126.542l0 501.326c0 69.781 56.761 126.5 126.521 126.5l509.141 0c69.781 0 126.521-56.718 126.521-126.5L900.202 261.362C900.203 191.573 843.442 134.834 773.696 134.812zM324.437 184.213l389.348 0 0 279.609-389.348 0L324.437 184.213zM850.873 762.681c0 42.553-34.617 77.191-77.17 77.191L264.548 839.872c-42.553 0-77.17-34.638-77.17-77.191l0-501.298c0-42.574 34.617-77.17 77.17-77.17l0-0.021 10.567 0 0 329.01 488.007 0 0.021 0L763.143 184.185l10.567 0c42.56 0 77.17 34.596 77.17 77.17l0 501.326L850.873 762.681zM591.772 256.832l49.33 0 0 164.523-49.33 0L591.772 256.832z" p-id="5282"></path></svg>